<svg xmlns="http://www.w3.org/2000/svg" width="199" height="125" fill="none" viewBox="0 0 199 125">
    <path fill="#C2E9FF" d="M168.213 59.63c7.585 0 14.189 4.215 17.58 10.492 1.249-2.152 2.052-4.663 2.052-7.353 0-7.89-6.425-14.347-14.278-14.347-6.782 0-12.493 4.842-13.921 11.209h8.567zM27.218 59.63h12.314c-1.07-6.815-6.96-12.105-14.1-12.105-7.852 0-14.277 6.456-14.277 14.347 0 1.704.268 3.318.803 4.842 3.748-4.304 9.191-7.084 15.26-7.084z"/>
    <path fill="url(#paint0_linear)" d="M93.253 40.8c-.357 0-.714-.09-.981-.359-.536-.538-.536-1.345 0-1.883l12.493-12.554c.535-.538 1.339-.538 1.874 0 .535.538.535 1.345 0 1.883L94.146 40.441c-.179.269-.536.359-.893.359z"/>
    <path fill="url(#paint1_linear)" d="M105.747 40.8c-.357 0-.714-.09-.982-.359L92.272 27.887c-.536-.538-.536-1.345 0-1.883.535-.538 1.338-.538 1.874 0l12.493 12.554c.535.538.535 1.345 0 1.883-.179.269-.535.359-.892.359z"/>
    <path fill="#FFD600" d="M101.374 33.178l5.265-5.29c.536-.539.536-1.346 0-1.884-.535-.538-1.338-.538-1.874 0l-5.265 5.29-5.265-5.29c-.535-.538-1.338-.538-1.874 0-.535.538-.535 1.345 0 1.883l5.265 5.29-5.265 5.291c-.535.538-.535 1.345 0 1.883.268.27.625.359.982.359s.714-.09.981-.359l5.265-5.29 5.265 5.29c.268.27.625.359.982.359s.714-.09.982-.359c.535-.538.535-1.345 0-1.883l-5.444-5.29zM62.11 33.178l5.264-5.29c.536-.539.536-1.346 0-1.884-.535-.538-1.338-.538-1.874 0l-5.265 5.29-5.265-5.29c-.535-.538-1.338-.538-1.874 0-.535.538-.535 1.345 0 1.883l5.265 5.29-5.265 5.291c-.535.538-.535 1.345 0 1.883.268.27.625.359.982.359s.714-.09.982-.359l5.265-5.29 5.265 5.29c.267.27.624.359.981.359s.714-.09.982-.359c.535-.538.535-1.345 0-1.883l-5.444-5.29zM140.639 33.178l5.265-5.29c.535-.539.535-1.346 0-1.884-.536-.538-1.339-.538-1.874 0l-5.265 5.29-5.265-5.29c-.536-.538-1.339-.538-1.874 0-.536.538-.536 1.345 0 1.883l5.265 5.29-5.265 5.291c-.536.538-.536 1.345 0 1.883.267.27.624.359.981.359s.714-.09.982-.359l5.265-5.29 5.265 5.29c.268.27.625.359.982.359s.713-.09.981-.359c.536-.538.536-1.345 0-1.883l-5.443-5.29z"/>
    <path fill="#C2E9FF" d="M125.379 3.587H71.836v11.657h53.543V3.587zM178.921 79.358H16.598v.448c0 2.87 1.071 5.38 2.856 7.353.803.897 1.784 1.614 2.855 2.242.893.448 1.874.807 2.856.986.625.09 1.338.18 1.963.18H166.874c.714 0 1.339-.09 1.964-.18 1.07-.179 1.963-.538 2.855-.986 1.071-.538 2.053-1.345 2.856-2.242 1.785-1.883 2.855-4.483 2.855-7.353l1.517-.448z"/>
    <path fill="#007DF4" d="M199 62.769c0-13.36-10.173-24.3-23.113-25.466C173.032 16.32 155.006 0 133.321 0H66.125C44.708 0 26.95 15.782 23.737 36.406 10.53 37.303 0 48.332 0 61.872c0 6.905 2.766 13.092 7.139 17.755v.18c0 6.366 2.945 12.015 7.496 15.692-3.213.448-5.711 3.228-5.711 6.635 0 3.677 3.034 6.725 6.693 6.725h7.585V125h12.047l3.57-16.141h120.47l3.57 16.141h12.047v-16.141h9.37c3.659 0 6.693-3.048 6.693-6.725 0-3.676-3.034-6.725-6.693-6.725h-3.391c3.569-2.96 6.157-7.174 7.05-11.926 0 .09 0 .269-.09.358C194.627 79.268 199 71.557 199 62.77zM66.125 4.484h67.196c19.275 0 35.249 14.257 38.015 32.819-11.958 1.076-21.595 10.402-23.023 22.328H50.776c-1.07-12.106-10.62-21.88-22.577-23.135C31.412 18.293 47.207 4.483 66.125 4.483zM26.95 36.406h-.179c.09-.09.179 0 .179 0zM4.373 61.872c0-11.657 9.459-21.162 21.06-21.162 10.887 0 19.81 8.25 20.881 18.92H27.218c-9.014 0-16.599 5.919-19.187 14.168-2.32-3.407-3.658-7.532-3.658-11.926zm27.306 58.645h-4.015v-11.658h6.603l-2.588 11.658zm138.765 0h-4.016l-2.588-11.658h6.604v11.658zm13.832-20.625c1.249 0 2.231.987 2.231 2.242 0 1.256-.982 2.242-2.231 2.242H15.617c-1.25 0-2.231-.986-2.231-2.242 0-1.255.981-2.242 2.23-2.242H25.7c.536 0 .982.09 1.518.09h140.995c.535 0 .982 0 1.517-.09h14.546zm-14.814-4.483H25.968c-8.031-.628-14.367-7.353-14.367-15.603 0-8.608 7.05-15.692 15.617-15.692h140.995c8.567 0 15.617 7.084 15.617 15.692 0 8.25-6.336 14.975-14.368 15.603zm-1.249-35.778h-15.617c1.517-10.313 10.352-18.203 20.971-18.203 11.69 0 21.239 9.505 21.239 21.341 0 6.008-2.499 11.478-6.515 15.423-.892-10.401-9.548-18.561-20.078-18.561z"/>
    <defs>
        <linearGradient id="paint0_linear" x1="91.915" x2="107.085" y1="33.178" y2="33.178" gradientUnits="userSpaceOnUse">
            <stop stop-color="#20A1FD"/>
            <stop offset="1" stop-color="#0D63F9"/>
        </linearGradient>
        <linearGradient id="paint1_linear" x1="107.085" x2="91.915" y1="33.178" y2="33.178" gradientUnits="userSpaceOnUse">
            <stop stop-color="#20A1FD"/>
            <stop offset="1" stop-color="#0D63F9"/>
        </linearGradient>
    </defs>
</svg>
